<svg width="220" height="70" viewBox="0 0 220 70" fill="none" xmlns="http://www.w3.org/2000/svg">
<path fill-rule="evenodd" clip-rule="evenodd" d="M123.154 19.4302C122.883 18.195 122.214 17.3413 121.509 16.6329C120.261 15.3796 118.67 14.7621 115.904 14.8347C114.223 14.8711 109.866 15.307 107.245 15.5249C106.485 15.5794 105.798 15.6521 105.798 15.6521L105.726 16.2152L101.152 50.6173C101.152 50.6173 103.503 50.5265 104.37 50.472C106.287 50.3267 107.281 49.2732 107.588 47.3842C107.751 46.4033 108.185 42.7343 108.203 42.4981L108.98 36.7402H108.962L111.095 20.8288C111.095 20.8288 113.807 20.52 114.639 20.4837C116.573 20.411 117.387 21.3373 117.17 23.2264C117.097 23.8258 115.94 32.3627 115.796 33.4889C115.525 35.4506 114.096 36.3769 112.488 36.5767C110.879 36.7765 111.439 36.7221 110.698 36.8129C110.625 36.831 110.535 36.831 110.463 36.831L111.999 42.262C111.999 42.262 111.999 42.262 112.017 42.262L112.09 42.5345C112.09 42.5345 113.102 46.1309 113.41 47.1117C114.006 48.9281 115.055 49.8544 117.116 49.8C117.983 49.7818 120.315 49.473 120.315 49.473L117.387 40.5909C120.785 39.3195 121.454 35.941 121.762 33.9248C122.159 30.946 122.539 28.3849 123.19 23.3717C123.407 21.7006 123.371 20.411 123.154 19.4302Z" fill="black"/>
<path fill-rule="evenodd" clip-rule="evenodd" d="M22.7463 25.3155C22.4751 24.0804 21.8062 23.2267 21.1012 22.5183C19.8538 21.265 18.2629 20.6474 15.4969 20.7201C13.8156 20.7564 9.22366 21.2105 6.8373 21.4466C5.68028 21.5556 5.39103 21.6283 5.39103 21.6283L5.31872 22.2459L0.744873 56.8115C0.744873 56.8115 3.09507 56.7207 3.96283 56.6662C5.87915 56.5209 6.81923 55.4674 7.12656 53.5783C7.19887 53.1424 8.59091 42.5529 8.59091 42.5529L10.7061 26.7323C10.7061 26.7323 13.4179 26.4235 14.2495 26.3872C16.1839 26.3145 16.9974 27.2409 16.7804 29.1299C16.7081 29.7293 15.6234 38.1755 15.4607 39.2835C15.0991 41.6629 13.6709 42.0988 11.9535 42.3531C11.7004 42.3713 11.4654 42.3895 11.2304 42.4258C10.7965 42.4439 10.5072 42.4803 10.5072 42.4803C10.5072 42.4803 10.218 42.4439 10.218 42.5166C10.0553 44.224 10.453 45.2957 10.9592 45.9677C11.6462 46.9304 13.0201 47.5298 15.5692 47.1665C17.5578 46.7669 18.4979 46.2038 19.438 45.114C20.5588 43.8244 21.1193 41.6447 21.4085 39.7376C21.8062 36.7587 22.1317 34.3066 22.7825 29.2934C23.0175 27.586 22.9633 26.2964 22.7463 25.3155Z" fill="black"/>
<path fill-rule="evenodd" clip-rule="evenodd" d="M36.3773 18.9038C33.4486 19.0854 26.5969 20.1208 25.6388 27.2954C25.4037 29.0392 23.3066 45.4955 23.0535 47.4391C22.0231 55.5219 28.694 55.7944 31.2431 55.7036C33.8644 55.5946 40.9693 54.868 42.1082 45.986C42.3794 44.2967 42.8313 40.7366 42.7952 40.9909C43.5002 35.6508 44.3138 29.0755 44.5488 27.2773C45.5793 19.0491 38.6552 18.7766 36.3773 18.9038ZM38.8541 27.2228C38.7818 27.8404 36.5039 45.3684 36.305 46.5309C36.1062 47.6933 35.1119 49.5097 32.0204 49.6732C29.4172 49.8003 28.7121 48.6015 28.8748 46.9305C28.9833 45.8951 31.1346 29.1481 31.3696 27.6042C31.5685 26.3328 32.6713 24.6799 35.2384 24.5345C38.2937 24.3711 39.0529 25.6425 38.8541 27.2228Z" fill="black"/>
<path fill-rule="evenodd" clip-rule="evenodd" d="M81.3025 16.942C79.1873 17.2508 78.193 18.2135 77.4879 20.0299C77.1083 20.9925 71.3774 37.794 71.3774 37.794L69.5876 46.9304L70.2204 37.8485C70.2204 37.8485 69.0814 20.3023 69.0453 20.0299C68.8826 18.8492 68.0148 17.7049 66.1166 17.832C65.8635 17.8502 64.9957 17.9229 64.7788 17.9229C62.537 18.05 61.6512 19.158 60.9461 21.1197C60.693 21.8099 54.7633 39.1018 54.7633 39.1018L52.9555 48.1655L53.6063 39.1381C53.6063 39.1381 52.612 22.2822 52.5577 21.6646C52.4312 19.7756 51.473 18.7221 49.5748 18.7766C48.8155 18.7947 46.1218 19.1035 46.1218 19.1035L48.6709 53.6147C48.6709 53.6147 52.1781 53.4693 53.1905 53.4149C55.4322 53.2877 56.3723 52.1434 56.9146 50.2725C57.2401 49.1645 63.0252 32.5992 63.0252 32.5992L64.9957 22.9724L64.1099 32.5265L65.4477 52.7428C65.4477 52.7428 68.4848 52.5793 69.5696 52.5248C71.522 52.434 72.7514 51.3079 73.3841 49.437C73.7818 48.2927 85.0447 16.7604 85.0447 16.7604C85.0447 16.7604 82.0798 16.8149 81.3025 16.942Z" fill="black"/>
<path fill-rule="evenodd" clip-rule="evenodd" d="M88.9315 16.3788C87.196 16.5423 86.2921 17.5958 86.057 19.5756C85.9666 20.393 81.7905 51.8163 81.7905 51.8163C81.7905 51.8163 95.2047 51.1443 95.6386 51.1261C97.6453 50.999 98.6396 49.8365 98.9108 47.8748C99.0012 47.2027 99.2904 45.2047 99.2904 45.2047L88.6242 45.7678L89.8354 36.5588C89.8354 36.5588 94.1381 36.3045 95.0059 36.2681C96.9583 36.1592 97.9165 35.0875 98.1334 33.925C98.3323 32.926 98.5854 30.4376 98.5854 30.4376L90.5766 30.8372L91.8241 21.8461C91.8241 21.8461 99.1097 21.501 100.068 21.4465C101.659 21.3739 102.653 20.4112 102.906 18.2497C102.997 17.3415 103.25 15.6886 103.25 15.6886C103.25 15.6886 90.1789 16.2698 88.9315 16.3788Z" fill="black"/>
<path fill-rule="evenodd" clip-rule="evenodd" d="M180.426 11.602C178.51 11.7473 177.516 12.8008 177.208 14.6899C176.774 17.9957 176.594 19.7394 176.594 19.7394L174.967 33.0171L174.605 41.6449L173.593 33.0534L170.917 16.3428C170.917 16.3428 170.809 15.816 170.682 15.1803C170.302 13.3094 169.272 12.2196 167.374 12.3286C166.217 12.4012 166.777 12.3649 164.788 12.4739C162.727 12.5829 161.444 13.7817 161.173 15.7252C160.106 23.6809 156.942 47.9659 156.942 47.9659C156.942 47.9659 159.293 47.875 160.16 47.8206C162.077 47.6752 163.071 46.6217 163.378 44.7327C163.541 43.7519 163.975 39.9375 163.993 39.6832L165.62 26.4055L166.018 17.814L166.994 26.3692L170.447 47.1667C170.447 47.1667 175.4 46.985 174.28 47.0395C176.431 46.9305 177.172 46.8215 176.106 46.876C178.058 46.7852 179.107 45.6046 179.36 43.6792C180.408 35.9233 183.644 11.493 183.644 11.493C183.644 11.493 181.294 11.5294 180.426 11.602Z" fill="black"/>
<path fill-rule="evenodd" clip-rule="evenodd" d="M189.05 40.5186L190.261 31.3096C190.261 31.3096 194.564 31.0553 195.431 31.019C197.384 30.91 198.324 29.8383 198.559 28.6759C198.758 27.6768 199.011 25.1884 199.011 25.1884L191.002 25.588L192.25 16.5969C192.25 16.5969 194.22 16.488 195.178 16.4516C196.769 16.379 197.764 15.4163 198.017 13.2548C198.107 12.3466 198.36 10.6937 198.36 10.6937C198.36 10.6937 190.623 11.0388 189.375 11.166C187.64 11.3295 186.736 12.383 186.501 14.3628C186.41 15.1802 182.234 46.6035 182.234 46.6035C182.234 46.6035 195.648 45.9314 196.082 45.9133C198.089 45.7861 199.083 44.6236 199.354 42.662C199.445 41.9899 199.734 39.9919 199.734 39.9919L189.05 40.5186Z" fill="black"/>
<path fill-rule="evenodd" clip-rule="evenodd" d="M203.296 10.3486C201.56 10.5121 200.656 11.5111 200.421 13.4909C200.403 13.6181 200.258 14.7079 200.078 16.1428C200.078 16.1428 203.296 15.9794 206.749 15.8159L202.789 45.4955C202.789 45.4955 205.14 45.4047 206.007 45.3502C207.924 45.2049 208.918 44.1514 209.225 42.2623C209.388 41.2452 209.894 37.013 209.894 37.013C209.894 37.013 209.894 37.013 209.912 37.013L210.635 31.2914L212.769 15.5253C214.775 15.4163 216.583 15.3436 217.053 15.3255C218.644 15.2528 219.422 14.2356 219.657 12.0742C219.747 11.166 220 9.51306 220 9.51306C220 9.51306 204.543 10.2214 203.296 10.3486Z" fill="black"/>
<path d="M6.89138 59.0455C6.94562 59.0455 6.99986 59.1 6.99986 59.1727L6.90946 59.8266C6.89138 59.8992 6.81907 59.9537 6.76484 59.9537L2.01021 59.9901L1.61248 62.9326L3.70958 62.9144C4.32425 62.9144 5.08354 62.9689 5.64397 63.2414C6.31287 63.5683 6.7106 64.1132 6.7106 65.1122C6.7106 66.1476 6.15017 66.9286 5.40895 67.3101C4.88468 67.6007 4.23386 67.6915 3.60111 67.7097L0.111974 67.746C0.0396608 67.746 -0.0145746 67.7097 0.00350386 67.637L1.12437 59.2453C1.12437 59.1908 1.1786 59.1182 1.25092 59.1182L6.89138 59.0455ZM4.99315 63.9498C4.64966 63.7863 4.14346 63.6955 3.63727 63.7136L1.54017 63.7318L1.14244 66.8923L3.61919 66.8741C4.08923 66.8741 4.52311 66.7833 4.8666 66.6017C5.3728 66.3292 5.73436 65.8388 5.71629 65.1849C5.71629 64.6037 5.49934 64.1859 4.99315 63.9498Z" fill="#C1C2D4"/>
<path d="M9.15136 61.6614C9.16944 61.5887 9.2056 61.5342 9.27791 61.5342H9.96489C10.0191 61.5342 10.0734 61.5887 10.0734 61.6614L9.74795 64.0227L11.3931 64.0045C11.8089 64.0045 12.3151 64.059 12.6767 64.2406C13.1467 64.4586 13.4179 64.8219 13.4359 65.4939C13.4359 66.1842 13.0563 66.7291 12.5501 66.9834C12.2066 67.165 11.7547 67.2377 11.3208 67.2558L8.53669 67.274C8.48246 67.274 8.42822 67.2195 8.42822 67.165L9.15136 61.6614ZM11.2304 66.6019C11.5196 66.6019 11.7908 66.5474 12.0078 66.4384C12.3151 66.275 12.5501 65.948 12.5501 65.5303C12.5501 65.167 12.4055 64.9309 12.0981 64.7855C11.8812 64.6766 11.5558 64.6221 11.2304 64.6221L9.67563 64.6402L9.42254 66.6019H11.2304ZM14.8461 61.6069C14.8641 61.5524 14.9003 61.4797 14.9907 61.4797H15.6777C15.7319 61.4797 15.7861 61.5342 15.7861 61.6069L15.063 67.0923C15.063 67.1468 15.0088 67.2013 14.9184 67.2013H14.2314C14.1772 67.2013 14.1229 67.1468 14.1229 67.0923L14.8461 61.6069Z" fill="#C1C2D4"/>
<path d="M21.9326 61.952C21.8783 62.0246 21.8422 62.0246 21.7518 61.9883C21.4445 61.843 21.0287 61.7703 20.5948 61.7885C19.962 61.7885 19.3293 62.0609 18.8773 62.5332C18.4254 62.9691 18.1542 63.6049 18.1542 64.2951C18.1542 64.84 18.335 65.2941 18.6242 65.6392C18.9677 66.0025 19.4558 66.2023 20.0343 66.2023C20.5586 66.2023 21.0287 66.0751 21.3722 65.8572C21.4625 65.7845 21.5168 65.8027 21.5529 65.8753L21.7518 66.3294C21.7699 66.3839 21.7518 66.4384 21.6795 66.4747C21.1733 66.8017 20.5405 66.947 19.8174 66.9651C19.0581 66.9651 18.4073 66.7109 17.9372 66.2386C17.4853 65.8027 17.2141 65.1669 17.2141 64.4041C17.2141 63.4232 17.5938 62.5877 18.2084 62.0065C18.8592 61.3889 19.727 61.0256 20.6129 61.0074C21.2275 61.0074 21.7518 61.1164 22.1857 61.3162C22.2399 61.3344 22.258 61.407 22.2218 61.4615L21.9326 61.952Z" fill="#C1C2D4"/>
<path d="M29.164 60.7531C29.2363 60.7531 29.2725 60.7894 29.2725 60.8802L29.1821 61.4614C29.164 61.5341 29.1098 61.5704 29.0375 61.5704L26.9042 61.5886L26.2715 66.3838C26.2534 66.4746 26.2172 66.4928 26.1268 66.4928H25.4399C25.3675 66.4928 25.3314 66.4383 25.3314 66.3838L25.9641 61.5886L23.8309 61.6068C23.7766 61.6068 23.7224 61.5523 23.7224 61.4796L23.8128 60.9165C23.8128 60.862 23.867 60.7894 23.9394 60.7894L29.164 60.7531Z" fill="#C1C2D4"/>
<path d="M31.4058 60.9348C31.8396 60.5897 32.3639 60.3173 33.069 60.3173C33.7017 60.3173 34.226 60.5352 34.6056 60.9348C35.0034 61.3708 35.2384 61.9702 35.2384 62.733C35.2565 63.841 34.8949 64.6947 34.2802 65.276C33.6294 65.9117 32.6893 66.2386 31.6589 66.2568C31.5865 66.2568 31.1707 66.2386 30.8815 66.1842L30.5018 69.0177C30.5018 69.0722 30.4476 69.1267 30.3753 69.1267H29.6883C29.616 69.1267 29.5798 69.0722 29.5798 68.9995L30.6826 60.5716C30.7007 60.4989 30.7369 60.4444 30.8272 60.4444H31.3515C31.4058 60.4444 31.46 60.4989 31.4419 60.5716L31.4058 60.9348ZM31.4419 61.7159L30.9719 65.4213C31.225 65.4758 31.6769 65.4758 31.7492 65.4758C32.5085 65.4758 33.1774 65.2215 33.6294 64.7311C34.0633 64.277 34.3164 63.6049 34.2983 62.7875C34.2983 62.2789 34.1717 61.843 33.9006 61.5524C33.6475 61.2618 33.2859 61.0801 32.8159 61.0983C32.2735 61.1165 31.7854 61.3708 31.4419 61.7159Z" fill="#C1C2D4"/>
<path d="M37.8235 60.1539C37.8416 60.0813 37.8777 60.0268 37.95 60.0268H38.637C38.6912 60.0268 38.7455 60.0813 38.7455 60.1539L38.4201 62.5152L40.0652 62.4971C40.481 62.4971 40.9872 62.5515 41.3488 62.7332C41.8188 62.9512 42.09 63.3144 42.1081 63.9865C42.1081 64.6767 41.7284 65.2216 41.2222 65.4759C40.8787 65.6576 40.4268 65.7302 39.9929 65.7484L37.2088 65.7665C37.1546 65.7665 37.1003 65.712 37.1003 65.6576L37.8235 60.1539ZM39.9025 65.0945C40.1918 65.0945 40.4629 65.04 40.6799 64.931C40.9872 64.7675 41.2222 64.4406 41.2222 64.0228C41.2222 63.6595 41.0776 63.4234 40.7703 63.2781C40.5533 63.1691 40.2279 63.1146 39.9025 63.1146L38.3478 63.1328L38.0947 65.0945H39.9025ZM43.5182 60.0994C43.5363 60.0449 43.5724 59.9723 43.6628 59.9723H44.3498C44.404 59.9723 44.4583 60.0268 44.4583 60.0994L43.7351 65.5849C43.7351 65.6394 43.6809 65.6939 43.5905 65.6939H42.9035C42.8493 65.6939 42.795 65.6394 42.795 65.5849L43.5182 60.0994Z" fill="#C1C2D4"/>
<path d="M51.4366 65.1487C51.4185 65.2395 51.3824 65.2577 51.3101 65.2577H50.6231C50.5508 65.2577 50.5146 65.2214 50.5146 65.1487L51.0208 61.2617L46.9351 64.7673L46.8809 65.185C46.8628 65.2759 46.8266 65.294 46.7543 65.294H46.0493C45.995 65.294 45.9408 65.2577 45.9589 65.185L46.682 59.6996C46.7001 59.6269 46.7362 59.5724 46.8086 59.5724H47.4955C47.5678 59.5724 47.604 59.6269 47.604 59.6996L47.0797 63.6411L51.1655 60.1174L51.2197 59.6633C51.2378 59.5906 51.2739 59.5361 51.3462 59.5361H52.0513C52.1055 59.5361 52.1598 59.5906 52.1417 59.6633L51.4366 65.1487ZM50.84 56.2485C50.8581 56.1577 50.9304 56.1213 51.0027 56.1213H51.3101C51.4185 56.1213 51.4547 56.1758 51.4547 56.2485C51.3282 57.1203 50.6412 57.8469 49.6107 57.8651C48.5622 57.8651 48.074 57.1567 48.1825 56.2848C48.1825 56.2303 48.2367 56.1577 48.3452 56.1577H48.6706C48.7249 56.1577 48.7791 56.194 48.7791 56.2848C48.761 56.8297 49.0322 57.193 49.683 57.193C50.3519 57.1748 50.7316 56.7934 50.84 56.2485Z" fill="#C1C2D4"/>
<path d="M63.1515 58.955C63.26 58.955 63.2961 59.0458 63.1696 59.1729L60.4759 61.8248L62.5549 64.4949C62.6272 64.6039 62.5911 64.6947 62.4826 64.6947H61.7595C61.651 64.6947 61.5968 64.6765 61.5425 64.5857L59.7528 62.2426H58.8488L58.5415 64.6039C58.5415 64.6584 58.4873 64.7129 58.415 64.7129H57.728C57.6737 64.7129 57.6195 64.6584 57.6376 64.6039L58.3607 59.1184C58.3788 59.0639 58.415 58.9913 58.5053 58.9913H59.1742C59.2466 58.9913 59.3008 59.0458 59.2827 59.1184L58.9754 61.4434H59.807L62.1391 59.1003C62.1933 59.0276 62.2657 58.9731 62.3741 58.9731L63.1515 58.955Z" fill="#C1C2D4"/>
<path d="M67.7793 64.2226L67.8335 63.7866C67.3273 64.2226 66.8031 64.4224 66.1342 64.4405C65.7003 64.4405 65.1037 64.2771 64.6879 63.8048C64.3444 63.4234 64.1094 62.8784 64.0913 62.0429C64.0913 61.0076 64.471 60.2084 65.0495 59.6271C65.8268 58.8824 66.8754 58.501 67.8697 58.501C68.394 58.501 68.8821 58.5373 69.2617 58.61C69.316 58.6281 69.3702 58.6826 69.3702 58.7916L68.6651 64.2226C68.6651 64.2771 68.6109 64.3316 68.5386 64.3316H67.9239C67.8155 64.3497 67.7612 64.3134 67.7793 64.2226ZM67.8878 63.0056L68.3397 59.3365C68.0685 59.3002 67.8697 59.3002 67.5443 59.3365C66.8754 59.3728 66.1884 59.6453 65.7003 60.1539C65.2845 60.608 64.9952 61.2437 65.0133 62.0066C65.0133 62.5697 65.176 62.9874 65.411 63.2417C65.7003 63.5687 66.1161 63.6958 66.4053 63.6958C66.9115 63.6958 67.3996 63.5323 67.8878 63.0056Z" fill="#C1C2D4"/>
<path d="M76.2402 56.6663C75.5532 57.1385 74.4866 57.2294 73.5826 57.7379C72.9137 58.1194 72.4618 58.7188 72.2448 59.409C72.7691 59.0094 73.3838 58.628 74.4866 58.6098C75.3001 58.6098 75.9509 58.8641 76.4029 59.3182C76.8006 59.736 77.0356 60.3172 77.0356 61.0256C77.0356 61.8429 76.7644 62.5332 76.3305 63.0781C75.7882 63.7138 74.9566 64.0953 73.9261 64.0953C72.986 64.0953 72.2991 63.8228 71.829 63.3142C71.359 62.7875 71.1059 62.0246 71.1059 61.1164C71.0878 59.627 71.6482 58.0649 72.968 57.2475C73.9261 56.6118 74.8481 56.5936 75.5532 56.194C75.8605 55.9942 76.0051 55.7763 76.0594 55.4493C76.0775 55.3767 76.1136 55.3403 76.204 55.3403H76.8367C76.9091 55.3403 76.9452 55.3948 76.9452 55.4856C76.8367 55.9397 76.6379 56.3757 76.2402 56.6663ZM71.9917 61.1346C71.9917 61.7703 72.1544 62.3515 72.4979 62.7511C72.7872 63.1326 73.2753 63.3505 73.9442 63.3505C74.6673 63.3505 75.2458 63.0599 75.6436 62.6058C75.9509 62.2062 76.1317 61.6976 76.1136 61.0619C76.1136 60.5533 75.9328 60.1174 75.6074 59.8086C75.2639 59.4817 74.7939 59.2819 74.2154 59.2819C73.3295 59.2819 72.751 59.5543 72.1002 60.1537C72.0279 60.4443 71.9917 60.8439 71.9917 61.1346Z" fill="#C1C2D4"/>
<path d="M79.422 61.4977C79.4762 61.8973 79.639 62.2787 79.9463 62.5693C80.2175 62.8418 80.6333 62.9871 81.1937 62.9871C81.6637 62.9871 82.2422 62.8599 82.658 62.5875C82.7304 62.533 82.7846 62.5512 82.8027 62.6057L83.0015 63.0416C83.0196 63.0961 83.0196 63.1506 82.9654 63.1869C82.5315 63.4775 81.8264 63.6773 81.0129 63.6773C80.344 63.6773 79.7293 63.4775 79.2593 63.0779C78.7712 62.6602 78.4819 62.0244 78.4819 61.1526C78.4819 60.2989 78.7893 59.427 79.3497 58.8094C79.9101 58.1556 80.7237 57.7378 81.6637 57.7378C82.2422 57.7378 82.6942 57.9013 83.0015 58.1374C83.3089 58.3917 83.4716 58.755 83.4716 59.1727C83.4716 60.0264 82.9292 60.6258 82.1157 61.0073C81.3202 61.4069 80.3259 61.5158 79.422 61.4977ZM79.4039 60.9164C80.109 60.9528 80.9587 60.8983 81.6276 60.6258C82.2784 60.3534 82.7123 59.9174 82.6942 59.318C82.6942 59.1001 82.6219 58.9184 82.4592 58.755C82.2965 58.5733 82.0072 58.4825 81.6457 58.4825C81.0491 58.4825 80.4525 58.755 80.0367 59.2635C79.6751 59.7176 79.4401 60.2807 79.4039 60.9164Z" fill="#C1C2D4"/>
<path d="M86.2919 61.5525C86.0569 62.17 85.7676 62.7331 85.388 63.1509C85.2976 63.2599 85.2434 63.278 85.0987 63.278H84.5383C84.4117 63.278 84.3937 63.2054 84.5021 63.0419C84.8999 62.5515 85.2072 61.9884 85.4241 61.389C85.8219 60.39 86.0026 59.282 86.1473 58.2103L86.2196 57.6836C86.2196 57.5928 86.2738 57.5383 86.3642 57.5383L90.5946 57.502C90.6488 57.502 90.7031 57.5564 90.7031 57.6291L89.9618 63.1146C89.9438 63.169 89.9076 63.2235 89.8353 63.2235H89.1483C89.0941 63.2235 89.0398 63.169 89.0579 63.1146L89.6907 58.3193L87.0331 58.3375C86.8885 59.3728 86.6896 60.4808 86.2919 61.5525Z" fill="#C1C2D4"/>
<path d="M92.3482 62.8965C92.294 62.8965 92.2397 62.842 92.2397 62.7875L92.9629 57.3021C92.981 57.2294 93.0171 57.1749 93.0894 57.1749H93.7764C93.8307 57.1749 93.8849 57.2294 93.8849 57.3021L93.5595 59.6634L95.2046 59.6452C95.6204 59.6452 96.1266 59.6815 96.4882 59.8813C96.9582 60.0993 97.2294 60.4626 97.2475 61.1346C97.2475 61.8248 96.8859 62.3698 96.3616 62.624C96.0181 62.8238 95.5662 62.8783 95.1323 62.8965H92.3482ZM95.9097 60.4444C95.6927 60.3354 95.3673 60.2809 95.0419 60.2809L93.4872 60.2991L93.2341 62.2608L95.0419 62.2426C95.3312 62.2426 95.6023 62.1881 95.8193 62.0791C96.1266 61.9157 96.3616 61.5887 96.3616 61.1709C96.3616 60.8258 96.217 60.5897 95.9097 60.4444Z" fill="#C1C2D4"/>
<path d="M103.484 60.0266L100.14 60.0629L99.8322 62.4242C99.8142 62.4968 99.778 62.5332 99.7238 62.5332H99.0368C98.9645 62.5332 98.9102 62.4968 98.9283 62.4242L99.6514 56.9387C99.6514 56.8661 99.7057 56.8116 99.778 56.8116H100.465C100.519 56.8116 100.573 56.8661 100.555 56.9387L100.248 59.2637L103.593 59.2274L103.9 56.9024C103.9 56.8298 103.954 56.7753 104.026 56.7753H104.713C104.768 56.7753 104.822 56.8298 104.804 56.9024L104.081 62.3879C104.063 62.4605 104.026 62.4968 103.972 62.4968H103.285C103.213 62.4968 103.159 62.4605 103.177 62.3879L103.484 60.0266Z" fill="#C1C2D4"/>
<path d="M107.082 56.5029C107.1 56.4303 107.136 56.3758 107.209 56.3758H107.896C107.95 56.3758 108.004 56.4303 108.004 56.5029L107.679 58.8642L109.324 58.8461C109.74 58.8461 110.246 58.9006 110.607 59.0822C111.077 59.3002 111.349 59.6634 111.367 60.3355C111.367 61.0257 110.987 61.5706 110.481 61.8249C110.137 62.0066 109.685 62.0792 109.251 62.0974L106.467 62.1155C106.413 62.1155 106.359 62.0611 106.359 62.0066L107.082 56.5029ZM109.161 61.4435C109.45 61.4435 109.721 61.389 109.938 61.28C110.246 61.1165 110.481 60.7896 110.481 60.3718C110.481 60.0085 110.336 59.7724 110.029 59.6271C109.812 59.5181 109.486 59.4636 109.161 59.4636L107.606 59.4818L107.353 61.4435H109.161ZM112.777 56.4484C112.795 56.3939 112.831 56.3213 112.921 56.3213H113.608C113.663 56.3213 113.717 56.3758 113.717 56.4484L112.994 61.9339C112.994 61.9884 112.939 62.0429 112.849 62.0429H112.162C112.108 62.0429 112.054 61.9884 112.054 61.9339L112.777 56.4484Z" fill="#C1C2D4"/>
<path d="M120.695 61.498C120.677 61.5888 120.641 61.607 120.569 61.607H119.882C119.809 61.607 119.773 61.5706 119.773 61.498L120.279 57.6109L116.194 61.1165L116.139 61.5343C116.121 61.6251 116.085 61.6433 116.013 61.6433H115.308C115.254 61.6433 115.199 61.607 115.217 61.5343L115.941 56.0489C115.959 55.9762 115.995 55.9217 116.067 55.9217H116.754C116.826 55.9217 116.863 55.9762 116.863 56.0489L116.338 59.9904L120.424 56.4666L120.478 56.0125C120.496 55.9399 120.532 55.8854 120.605 55.8854H121.31C121.364 55.8854 121.418 55.9399 121.4 56.0125L120.695 61.498ZM120.117 52.6159C120.135 52.5251 120.207 52.4888 120.279 52.4888H120.587C120.695 52.4888 120.731 52.5433 120.731 52.6159C120.605 53.4878 119.918 54.2143 118.887 54.2325C117.839 54.2325 117.351 53.5241 117.459 52.6522C117.459 52.5978 117.513 52.5251 117.622 52.5251H117.947C118.002 52.5251 118.056 52.5614 118.056 52.6522C118.038 53.1972 118.309 53.5604 118.96 53.5604C119.61 53.5241 120.008 53.1608 120.117 52.6159Z" fill="#C1C2D4"/>
<path d="M162.402 59.3C162.384 59.3908 162.347 59.4089 162.275 59.4089H161.588C161.516 59.4089 161.48 59.3726 161.48 59.3L161.986 55.4129L157.9 58.9185L157.846 59.3363C157.828 59.4271 157.792 59.4453 157.719 59.4453H157.014C156.96 59.4453 156.906 59.409 156.924 59.3363L157.647 53.8509C157.665 53.7782 157.701 53.7237 157.774 53.7237H158.461C158.533 53.7237 158.569 53.7782 158.569 53.8509L158.045 57.7924L162.131 54.2686L162.185 53.8145C162.203 53.7419 162.239 53.6874 162.311 53.6874H163.016C163.071 53.6874 163.125 53.7419 163.107 53.8145L162.402 59.3Z" fill="#C1C2D4"/>
<path d="M169.236 56.5573L165.891 56.5937L165.584 58.9549C165.566 59.0276 165.53 59.0639 165.475 59.0639H164.788C164.716 59.0639 164.662 59.0276 164.68 58.9549L165.403 53.4695C165.403 53.3969 165.457 53.3424 165.53 53.3424H166.217C166.271 53.3424 166.325 53.3969 166.307 53.4695L166 55.7945L169.344 55.7581L169.652 53.4332C169.652 53.3605 169.706 53.306 169.778 53.306H170.465C170.519 53.306 170.574 53.3605 170.556 53.4332L169.832 58.9186C169.814 58.9913 169.778 59.0276 169.724 59.0276H169.037C168.965 59.0276 168.91 58.9913 168.928 58.9186L169.236 56.5573Z" fill="#C1C2D4"/>
<path d="M177.497 52.9427C177.57 52.9427 177.606 52.9791 177.606 53.0699L177.516 53.6511C177.497 53.7238 177.443 53.7601 177.371 53.7601L175.238 53.7783L174.605 58.5735C174.587 58.6643 174.551 58.6825 174.46 58.6825H173.773C173.701 58.6825 173.665 58.628 173.665 58.5735L174.298 53.7783L172.164 53.7964C172.11 53.7964 172.056 53.742 172.056 53.6693L172.146 53.1062C172.146 53.0517 172.201 52.9791 172.273 52.9791L177.497 52.9427Z" fill="#C1C2D4"/>
<path d="M179.161 56.2487C179.215 56.6483 179.378 57.0297 179.685 57.3203C179.956 57.5928 180.372 57.7381 180.932 57.7381C181.403 57.7381 181.981 57.6109 182.397 57.3385C182.469 57.284 182.523 57.3022 182.541 57.3567L182.74 57.7926C182.758 57.8471 182.758 57.9016 182.704 57.9379C182.27 58.2285 181.565 58.4283 180.752 58.4283C180.083 58.4283 179.468 58.2285 178.998 57.8289C178.51 57.4111 178.221 56.7754 178.221 55.9036C178.221 55.0499 178.528 54.178 179.088 53.5604C179.649 52.9065 180.462 52.4888 181.403 52.4888C181.981 52.4888 182.433 52.6522 182.74 52.8884C183.048 53.1427 183.21 53.5059 183.21 53.9237C183.21 54.7774 182.668 55.3768 181.854 55.7582C181.059 56.1578 180.065 56.2668 179.161 56.2487ZM179.125 55.6674C179.83 55.7038 180.679 55.6493 181.348 55.3768C181.999 55.1044 182.433 54.6684 182.415 54.069C182.415 53.8511 182.343 53.6694 182.18 53.5059C182.017 53.3243 181.728 53.2335 181.366 53.2335C180.77 53.2335 180.173 53.5059 179.757 54.0145C179.414 54.4686 179.179 55.0317 179.125 55.6674Z" fill="#C1C2D4"/>
<path d="M186.103 52.7975C186.537 52.4524 187.061 52.1799 187.766 52.1799C188.399 52.1799 188.923 52.3979 189.303 52.7975C189.7 53.2334 189.935 53.8328 189.935 54.5957C189.953 55.7037 189.592 56.5392 188.977 57.1386C188.326 57.7744 187.386 58.1013 186.356 58.1195C186.284 58.1195 185.868 58.1013 185.578 58.0468L185.199 60.8804C185.199 60.9349 185.145 60.9894 185.072 60.9894H184.385C184.313 60.9894 184.277 60.9349 184.277 60.8622L185.38 52.4342C185.398 52.3616 185.434 52.3071 185.524 52.3071H186.049C186.103 52.3071 186.157 52.3616 186.139 52.4342L186.103 52.7975ZM186.139 53.5604L185.669 57.2658C185.922 57.3203 186.374 57.3203 186.446 57.3203C187.206 57.3203 187.874 57.066 188.326 56.5756C188.76 56.1215 189.013 55.4494 188.995 54.632C188.995 54.1235 188.869 53.6875 188.598 53.3969C188.344 53.1063 187.983 52.9246 187.513 52.9428C186.989 52.961 186.5 53.2334 186.139 53.5604Z" fill="#C1C2D4"/>
<path d="M196.371 55.1224L193.027 55.1587L192.719 57.52C192.701 57.5927 192.665 57.629 192.611 57.629H191.924C191.852 57.629 191.797 57.5927 191.816 57.52L192.539 52.0346C192.539 51.9619 192.593 51.9074 192.665 51.9074H193.352C193.406 51.9074 193.461 51.9619 193.443 52.0346L193.135 54.3595L196.48 54.3232L196.787 51.9982C196.787 51.9256 196.841 51.8711 196.914 51.8711H197.601C197.655 51.8711 197.709 51.9256 197.691 51.9982L196.968 57.4837C196.95 57.5564 196.914 57.5927 196.859 57.5927H196.172C196.1 57.5927 196.046 57.5564 196.064 57.4837L196.371 55.1224Z" fill="#C1C2D4"/>
<path d="M200.114 55.1404C200.168 55.54 200.331 55.9214 200.638 56.212C200.909 56.4845 201.325 56.6298 201.885 56.6298C202.355 56.6298 202.934 56.5027 203.35 56.2302C203.422 56.1757 203.476 56.1939 203.494 56.2484L203.693 56.6843C203.711 56.7388 203.711 56.7933 203.657 56.8296C203.223 57.1202 202.518 57.32 201.705 57.32C201.036 57.32 200.421 57.1202 199.951 56.7206C199.463 56.3029 199.174 55.6671 199.174 54.7953C199.174 53.9416 199.481 53.0697 200.041 52.4522C200.602 51.7983 201.415 51.3805 202.355 51.3805C202.934 51.3805 203.386 51.544 203.693 51.7801C204.001 52.0344 204.163 52.3977 204.163 52.8154C204.163 53.6691 203.621 54.2685 202.807 54.65C202.012 55.0496 201.018 55.1586 200.114 55.1404ZM200.096 54.5592C200.801 54.5955 201.65 54.541 202.319 54.2685C202.97 53.9961 203.404 53.5601 203.386 52.9607C203.386 52.7428 203.314 52.5611 203.151 52.3977C202.988 52.216 202.699 52.1252 202.337 52.1252C201.741 52.1252 201.144 52.3977 200.728 52.9062C200.367 53.3603 200.132 53.9416 200.096 54.5592Z" fill="#C1C2D4"/>
<path d="M211.015 51.1626C211.087 51.1626 211.123 51.1989 211.123 51.2897L211.033 51.871C211.015 51.9436 210.961 51.98 210.888 51.98L208.755 51.9981L208.122 56.7934C208.104 56.8842 208.068 56.9023 207.978 56.9023H207.291C207.218 56.9023 207.182 56.8478 207.182 56.7934L207.815 51.9981L205.682 52.0163C205.627 52.0163 205.573 51.9618 205.573 51.8891L205.664 51.3261C205.664 51.2716 205.718 51.1989 205.79 51.1989L211.015 51.1626Z" fill="#C1C2D4"/>
<path d="M159.546 0.891357L155.279 3.65225L139.695 36.7285L143.04 40.9788C143.04 40.9788 147.397 32.6234 151.754 25.0128C156.653 16.4395 161.805 8.66545 161.805 8.66545L159.546 0.891357ZM146.746 43.776L139.46 53.2393L135.809 68.3879C135.809 68.3879 141.503 59.5966 145.354 54.0385C148.608 49.3341 149.566 47.9718 149.566 47.9718L148.5 42.777L146.746 43.776Z" fill="#C58A2D"/>
<path d="M146.33 23.5778C150.091 15.6765 154.954 6.92158 159.564 0.873047C159.564 0.873047 157.015 1.25449 153.543 2.03553C149.982 2.83473 146.818 3.77925 144.775 4.52396C139.786 6.32218 135.899 9.3192 133.965 15.3314C134.326 14.2053 131.976 20.6534 130.729 27.8462C129.3 35.2389 128.523 41.9958 128.523 41.9777C131.199 43.8849 133.983 45.6104 136.423 47.0635C135.248 52.4763 134.597 61.3766 135.827 68.3151C138.068 63.1385 140.292 58.2161 142.552 53.657C144.631 49.4611 146.348 46.3551 148.5 42.795C145.951 40.6699 143.474 38.5265 140.979 36.1289C142.136 33.1137 144.034 28.4093 146.33 23.5778Z" fill="#FFC418"/>
</svg>
